<?xml version="1.0" encoding="UTF-8"?>
<!-- Generator: Adobe Illustrator 22.1.0, SVG Export Plug-In . SVG Version: 6.00 Build 0)  -->
<!DOCTYPE svg PUBLIC "-//W3C//DTD SVG 1.1//EN" "http://www.w3.org/Graphics/SVG/1.1/DTD/svg11.dtd">
<svg version="1.1" id="Calque_1" xmlns="http://www.w3.org/2000/svg" xmlns:xlink="http://www.w3.org/1999/xlink" x="0px" y="0px" viewBox="0 0 3015.3 825" style="enable-background:new 0 0 3015.3 825;" xml:space="preserve">
<style type="text/css">
	.st0{fill:#63AE2F;}
	.st1{fill:#ACA6A5;}
</style>
<g>
	<g>
		<path class="st0" d="M925.7,147.9h162.2c59.7-1,125.3,14.6,125.3,86.9c0,31.1-18.5,56.3-45.7,69.9c36.9,10.7,59.7,42.7,59.7,82.1    c0,82.6-60.7,107.8-135,107.8H925.7V147.9z M1016.1,284.3h69.9c15.5,0,36.9-8.3,36.9-33c0-25.3-18-33.5-36.9-33.5h-69.9V284.3z     M1016.1,422.3h72.4c28.7,0,48.6-10.2,48.6-38.9c0-30.6-21.4-40.8-48.6-40.8h-72.4V422.3z"/>
		<path class="st0" d="M1365.8,147.9h91.8l129.7,346.8H1493l-21.4-62.2h-120.9l-21.9,62.2h-92.8L1365.8,147.9z M1371.6,365.5h78.7    L1411.9,244h-1L1371.6,365.5z"/>
		<path class="st0" d="M1608.6,147.9h149.1c106.4,0,170,64.6,170,171.9c0,113.7-64.6,174.9-170,174.9h-149.1V147.9z M1698.9,416.9    h42.7c68.5-1.5,95.7-28.2,95.7-97.6c0-63.1-34-93.7-95.7-93.7h-42.7V416.9z"/>
		<path class="st0" d="M1971.4,147.9h92.8l120.5,213.7h1V147.9h85v346.8h-92.8l-120.5-216.1h-1v216.1h-85V147.9z"/>
		<path class="st0" d="M2327.4,147.9h276.4v72.4h-186v60.7h170v69.9h-170v66.1h190.9v77.7h-281.2V147.9z"/>
		<path class="st0" d="M2930.2,225.6h-103.5v269.1h-90.3V225.6h-103.5v-77.7h297.3V225.6z"/>
	</g>
	<g>
		<path class="st1" d="M930.9,572.6h22.2v82.3h49.2v18.7h-71.4V572.6z"/>
		<path class="st1" d="M1013.3,572.6h75.5v18.7h-53.3v21.6h48.9v17.3h-48.9v24.7h54.4v18.7h-76.6V572.6z"/>
		<path class="st1" d="M1141.4,572.6h47.5c19.2,0,32.2,6.2,32.2,25c0,9.9-5,16.8-13.7,21.1c12.3,3.5,18.5,13,18.5,25.6    c0,20.5-17.4,29.3-35.6,29.3h-48.9V572.6z M1163.6,613.5h22.5c7.8,0,13.6-3.5,13.6-12c0-9.6-7.4-11.6-15.3-11.6h-20.8V613.5z     M1163.6,656.3h23.8c8.8,0,16.4-2.8,16.4-13.3c0-10.3-6.5-14.4-16-14.4h-24.2V656.3z"/>
		<path class="st1" d="M1267.1,572.6h22.8l37.8,101h-23.1l-7.6-22.5h-37.8l-7.9,22.5h-22.5L1267.1,572.6z M1264.9,634.6h26.2    l-12.7-37h-0.3L1264.9,634.6z"/>
		<path class="st1" d="M1334.9,572.6h43.6c26.2,0,45.8,16.4,45.8,49.9c0,29.3-15,51.1-45.8,51.1h-43.6V572.6z M1357.1,654.9h19.8    c12.9,0,25.2-7.9,25.2-30.3c0-20.4-7.1-33.4-29.1-33.4h-15.8V654.9z"/>
		<path class="st1" d="M1438.3,572.6h31.3l23.6,69.4h0.3l22.3-69.4h31.3v101h-20.8V602h-0.3l-24.7,71.6h-17.1l-24.7-70.8h-0.3v70.8    h-20.8V572.6z"/>
		<path class="st1" d="M1565.1,572.6h22.2v101h-22.2V572.6z"/>
		<path class="st1" d="M1605.4,572.6h22.1l42.1,67.7h0.3v-67.7h20.8v101h-22.2l-42-67.6h-0.3v67.6h-20.8V572.6z"/>
		<path class="st1" d="M1731.1,591.3h-30.3v-18.7h82.7v18.7h-30.3v82.3h-22.2V591.3z"/>
		<path class="st1" d="M1839,570.2c31.3,0,49.6,23.3,49.6,53.3c0,29.1-18.4,52.5-49.6,52.5c-31.3,0-49.6-23.3-49.6-52.5    C1789.3,593.5,1807.7,570.2,1839,570.2z M1839,657.3c19.9,0,27.4-17,27.4-33.8c0-17.7-7.5-34.6-27.4-34.6    c-19.9,0-27.4,17-27.4,34.6C1811.5,640.3,1819,657.3,1839,657.3z"/>
		<path class="st1" d="M1902.3,572.6h22.1l42.1,67.7h0.3v-67.7h20.8v101h-22.2l-42-67.6h-0.3v67.6h-20.8V572.6z"/>
		<path class="st1" d="M2043.5,572.6h45.5c25.2,0,34.9,16,34.9,32.4c0,16.4-9.8,32.4-34.9,32.4h-23.3v36.2h-22.2V572.6z     M2065.7,620.1h17.3c10.3,0,19.5-2.3,19.5-15.1s-9.2-15.1-19.5-15.1h-17.3V620.1z"/>
		<path class="st1" d="M2153.5,572.6h22.8l37.8,101H2191l-7.6-22.5h-37.8l-7.9,22.5h-22.5L2153.5,572.6z M2151.4,634.6h26.2    l-12.7-37h-0.3L2151.4,634.6z"/>
		<path class="st1" d="M2221.4,572.6h54.4c18.1,0,29.6,12.6,29.6,27.9c0,11.9-4.8,20.8-16,25.3v0.3c10.9,2.8,14,13.4,14.7,23.6    c0.4,6.4,0.3,18.2,4.2,23.9h-22.2c-2.7-6.4-2.4-16.1-3.5-24.2c-1.6-10.6-5.7-15.3-16.8-15.3h-22.2v39.5h-22.2V572.6z     M2243.6,618.3h24.3c9.9,0,15.3-4.2,15.3-14.4c0-9.8-5.4-14-15.3-14h-24.3V618.3z"/>
		<path class="st1" d="M2359.9,572.6h22.2v82.3h49.2v18.7h-71.4V572.6z"/>
		<path class="st1" d="M2442.4,572.6h75.5v18.7h-53.3v21.6h48.9v17.3h-48.9v24.7h54.4v18.7h-76.6V572.6z"/>
		<path class="st1" d="M2570.5,572.6h22.1l42.1,67.7h0.3v-67.7h20.8v101h-22.2l-42-67.6h-0.3v67.6h-20.8V572.6z"/>
		<path class="st1" d="M2673.8,572.6h75.5v18.7H2696v21.6h48.9v17.3H2696v24.7h54.4v18.7h-76.6V572.6z"/>
		<path class="st1" d="M2786.3,591.3h-30.3v-18.7h82.7v18.7h-30.3v82.3h-22.2V591.3z"/>
	</g>
</g>
<g>
	<path class="st0" d="M109.9,275.4C108,281,95.7,309.2,91.7,331c43.8,10.8,120.1,42.3,171.1,117.9l172.8-69.5l-6.3-30.2l-121,37.3   c-34.9-44.5-82.4-75.8-82.4-75.8s259.8-36,293.1-40.5c74-10,132.6,110.4,82.3,160.1c-25,24.7-213.9,210.6-213.9,210.6   c2.1-23.9-0.2-54.4-0.2-54.4l44.2-38.1c4.8-20.8,7.2-39.5,8.6-55.1c0,0-56.5,41.4-60,44c-4.2-20.2-11.8-42-11.8-42   s67.6-41.4,73.7-45.1c0.1-18.9-2.2-40.3-2.2-40.3s-121.9,60-155.1,76.2c34.5,66.9,43.1,165.2,4.9,247.4   c21.6,8.9,37.3,14.4,55.1,19.6c18.4-19.1,327.5-339.9,342.9-355.8c14.2-7,29.9-14.7,42.9-20.2c66.4-32.6,60.8-103.3,42.5-137   c-22.5-41.3-75-68.5-140.1-34.1c-5.9,2.9-21.3,10.5-32.6,15.7C585.2,223.2,167.3,269.1,109.9,275.4z"/>
	<g>
		<path class="st1" d="M247.4,504.3l-129.1,63.2c10.2,20.8,22.5,40.5,36.5,58.8l111.7-68.8C261.5,537.5,256.4,522.6,247.4,504.3z"/>
		<path class="st1" d="M245.1,709.3l14.3-12.4c8.3-22.9,13.8-53,13.8-81.4l-76.5,56.6C211.6,685.9,227.9,698.3,245.1,709.3z"/>
		<path class="st1" d="M185.5,424.4L85.1,455.5c2.5,20.4,6.7,40.3,12.5,59.5l125.6-50.2C212.3,449.6,195.2,432.6,185.5,424.4z"/>
		<path class="st1" d="M457.6,110.5c70.2,0,134.6,24.9,184.8,66.4c10.3-4.1,25.6-9.1,45.2-9.5c-64-66.1-153.7-107.2-253-107.2    C302.8,60.2,188,132.7,127.6,240l94.6-9.1C275,158,360.7,110.5,457.6,110.5z"/>
		<path class="st1" d="M783.2,360.9c-6.5,9.1-19,22.5-35.2,30.7c0.1,3.2,0.2,6.3,0.2,9.5c0,160.5-130.1,290.6-290.6,290.6    c-2.9,0-5.7-0.1-8.6-0.2L383.5,761c16.7,2.4,33.8,3.8,51.2,3.8c194.6,0,352.3-157.7,352.3-352.3C787,395,785.7,377.7,783.2,360.9z    "/>
	</g>
</g>
</svg>