<?xml version="1.0" standalone="no"?>
<!DOCTYPE svg PUBLIC "-//W3C//DTD SVG 20010904//EN"
 "http://www.w3.org/TR/2001/REC-SVG-20010904/DTD/svg10.dtd">
<svg version="1.0" xmlns="http://www.w3.org/2000/svg"
 width="268.000000pt" height="264.000000pt" viewBox="0 0 268.000000 264.000000"
 preserveAspectRatio="xMidYMid meet">
<metadata>
Created by potrace 1.15, written by Peter Selinger 2001-2017
</metadata>
<g transform="translate(0.000000,264.000000) scale(0.100000,-0.100000)"
fill="#eeeeee" stroke="none">
<path fill="#eeeeee" d="M1181 2479 c-232 -27 -478 -141 -660 -305 -130 -118 -268 -337 -320
-509 -88 -287 -61 -617 72 -880 86 -171 262 -365 419 -463 241 -149 524 -209
796 -168 88 13 129 26 86 26 -62 0 -188 90 -224 160 -24 48 -140 377 -140 400
0 10 43 116 96 236 53 121 105 239 116 264 l19 45 24 -59 c28 -68 91 -138 165
-182 27 -16 50 -32 50 -36 0 -4 -33 -30 -74 -57 -167 -113 -211 -217 -141
-336 50 -86 179 -145 318 -145 62 0 171 25 199 44 11 8 26 12 34 9 10 -4 7
-22 -15 -81 -15 -43 -32 -86 -36 -96 -12 -27 66 29 156 113 184 169 312 409
354 661 22 130 16 346 -13 463 -11 43 -21 79 -23 81 -2 2 -65 -167 -139 -377
-107 -303 -139 -383 -154 -385 -11 -3 -35 13 -65 42 -25 25 -81 65 -124 90
l-79 45 44 26 c23 15 54 34 67 42 46 29 113 97 132 135 37 73 18 168 -48 230
-15 15 -55 39 -88 55 -55 26 -70 28 -175 28 -110 0 -119 -2 -180 -32 -36 -17
-66 -30 -68 -28 -2 1 38 92 88 201 51 110 94 205 97 212 4 9 -67 12 -335 12
l-339 0 -31 -72 c-17 -40 -42 -99 -56 -130 -14 -32 -22 -58 -17 -58 6 0 12 9
16 20 10 32 74 89 113 100 21 5 153 10 305 10 l268 0 -85 -167 c-96 -189 -360
-668 -391 -709 -46 -60 -48 -55 -240 491 -192 545 -193 549 -143 603 49 53 38
52 735 52 l648 1 -70 65 c-187 174 -423 283 -680 313 -102 12 -157 12 -264 0z
m727 -918 c102 -53 143 -158 111 -284 -14 -58 -70 -131 -123 -162 l-45 -26
-68 35 c-141 75 -213 165 -213 270 0 113 89 186 227 186 53 0 84 -5 111 -19z
m-97 -612 c96 -50 166 -110 190 -164 35 -77 17 -199 -37 -247 -55 -48 -177
-63 -267 -32 -96 33 -159 147 -143 257 15 98 105 227 159 227 11 0 54 -18 98
-41z"/>
</g>
</svg>