<?xml version="1.0" encoding="UTF-8" standalone="no"?>
<svg
   xmlns:dc="http://purl.org/dc/elements/1.1/"
   xmlns:cc="http://creativecommons.org/ns#"
   xmlns:rdf="http://www.w3.org/1999/02/22-rdf-syntax-ns#"
   xmlns:svg="http://www.w3.org/2000/svg"
   xmlns="http://www.w3.org/2000/svg"
   viewBox="0 0 499.16192 699.99999"
   height="700"
   width="499.16193"
   xml:space="preserve"
   id="svg833"
   version="1.1"><metadata
     id="metadata839"><rdf:RDF><cc:Work
         rdf:about=""><dc:format>image/svg+xml</dc:format><dc:type
           rdf:resource="http://purl.org/dc/dcmitype/StillImage" /><dc:title></dc:title></cc:Work></rdf:RDF></metadata><defs
     id="defs837" /><g
     transform="matrix(1.3333333,0,0,-1.3333333,-26.620666,102.08373)"
     id="g841"><g
       id="g2106"><path
         id="path1425"
         style="opacity:1;fill:#eeeeee;fill-opacity:1;fill-rule:nonzero;stroke:none;stroke-width:1;stop-opacity:1"
         d="m 42.422313,-358.50166 v 30.28102 H 74.83568 v 17.12594 H 42.422313 v 11.71952 H 85.59816 v 17.24348 H 19.9655 v -76.36996 z" /><path
         id="path1429"
         style="opacity:1;fill:#eeeeee;fill-opacity:1;fill-rule:nonzero;stroke:none;stroke-width:1;stop-opacity:1"
         d="m 115.72219,-358.50166 v 30.28102 h 32.40497 v 17.12594 h -32.40497 v 11.71952 h 43.17585 v 17.24348 H 93.265377 v -76.36996 z" /><path
         id="path1441"
         style="opacity:1;fill:#eeeeee;fill-opacity:1;fill-rule:nonzero;stroke:none;stroke-width:1;stop-opacity:1"
         d="m 166.56274,-358.50166 h 39.69189 c 20.25731,0 30.96942,8.46223 30.96942,24.48842 0,8.10124 -3.81136,13.54964 -11.65236,16.65582 l -0.99901,0.40296 0.95703,0.50371 c 5.86816,3.11457 9.78026,6.81679 9.78026,14.70816 0,13.37335 -9.15902,19.61089 -28.82028,19.61089 h -39.92695 z m 40.05288,15.90866 h -18.78817 v 16.03458 h 18.9141 c 5.54914,0 8.73927,-2.8879 8.73927,-7.90815 0,-5.08742 -3.32445,-8.12643 -8.8652,-8.12643 m -0.83111,31.39756 h -17.95706 v 13.15508 h 17.95706 c 6.42223,0 7.78223,-3.5847 7.78223,-6.58174 0,-4.36543 -2.61926,-6.57334 -7.78223,-6.57334" /><path
         id="path1445"
         style="opacity:1;fill:#eeeeee;fill-opacity:1;fill-rule:nonzero;stroke:none;stroke-width:1;stop-opacity:1"
         d="m 322.96206,-358.50166 h 26.65435 c 31.34719,0 44.72054,11.55162 44.72054,38.62572 0,26.10027 -13.12989,37.74424 -42.5714,37.74424 h -28.80349 z m 27.97237,17.34422 h -5.51556 v 41.68152 h 6.22915 c 14.2968,0 19.86273,-5.81778 19.86273,-20.72743 0,-15.27903 -5.57432,-20.95409 -20.57632,-20.95409" /><path
         id="path1449"
         style="opacity:1;fill:#eeeeee;fill-opacity:1;fill-rule:nonzero;stroke:none;stroke-width:1;stop-opacity:1"
         d="m 280.02043,-280.71798 c -13.29779,0 -29.10571,-4.35704 -29.10571,-4.35704 l 0.93185,-16.08496 c 0,0 11.49286,4.67606 28.17386,3.97087 8.83161,-0.37778 11.73631,-4.33185 11.73631,-9.67951 v -4.28149 c -3.71902,1.5279 -8.70569,2.73679 -15.17829,2.73679 -17.7052,0 -24.68151,-6.50618 -26.62916,-8.08445 -7.33729,-5.98569 -9.97335,-18.62866 -3.09778,-29.71015 8.26075,-13.33977 29.36595,-12.28199 29.36595,-12.28199 h 15.53928 c 5.96889,0 21.60051,0.32741 21.60051,0.32741 v 50.86573 c 0,17.04199 -13.45729,26.57879 -33.33682,26.57879 m 4.7768,-61.85488 h -5.87655 c -9.79705,0 -14.33878,3.44198 -14.33878,9.28495 0,6.85038 4.91951,9.54519 14.33878,9.54519 4.11358,0 9.04149,-0.99901 12.83606,-2.77876 v -15.83311 c 0,0 -8.26075,-0.21827 -6.95951,-0.21827" /></g><g
       id="g2138"><path
         id="path1453"
         style="opacity:1;fill:#eeeeee;fill-opacity:1;fill-rule:nonzero;stroke:none;stroke-width:1;stop-opacity:1"
         d="m 98.207554,-445.52916 h -0.06716 c -1.318026,-1.8805 -4.105189,-2.90469 -6.690871,-2.90469 -5.314079,0 -9.578775,3.45037 -9.578775,9.46964 0,6.01087 4.264696,9.46124 9.578775,9.46124 2.627657,0 5.34766,-0.95704 6.690871,-2.90469 h 0.06716 v 9.1926 h 3.358026 v -24.60595 h -3.358026 z m -6.329883,-0.0336 c 4.575313,0 6.531365,3.21531 6.531365,6.59853 0,4.09679 -2.585682,6.59852 -6.531365,6.59852 -3.886918,0 -6.447414,-2.50173 -6.447414,-6.59852 0,-3.38322 1.922471,-6.59853 6.447414,-6.59853" /><path
         id="path1457"
         style="opacity:1;fill:#eeeeee;fill-opacity:1;fill-rule:nonzero;stroke:none;stroke-width:1;stop-opacity:1"
         d="m 108.44115,-439.89187 c 0.26864,-3.69383 3.49235,-5.67507 6.48939,-5.67507 1.91408,0 4.53334,0.64642 5.67507,3.18173 h 3.5679 c -1.67901,-4.30667 -5.60791,-6.04445 -9.07507,-6.04445 -6.85877,0 -10.2168,4.40742 -10.2168,9.56199 0,5.16297 3.35803,9.57038 10.2168,9.57038 4.63408,0 9.5452,-2.7284 9.5452,-10.14964 v -0.44494 z m 12.64298,2.66963 c -0.50371,3.2405 -2.98865,5.05383 -6.15359,5.05383 -3.09778,0 -5.88494,-1.84691 -6.38865,-5.05383 z" /><path
         id="path1461"
         style="opacity:1;fill:#eeeeee;fill-opacity:1;fill-rule:nonzero;stroke:none;stroke-width:1;stop-opacity:1"
         d="m 139.82024,-423.42158 h 13.33977 c 5.11259,0 7.39605,-2.28346 7.39605,-6.11161 0,-2.97186 -1.54469,-4.44939 -3.50074,-5.16297 v -0.0672 c 2.77037,-0.64642 4.55013,-2.50173 4.55013,-6.01087 0,-3.49235 -2.40099,-7.04346 -7.60594,-7.04346 h -14.17927 z m 13.27261,-10.07408 c 2.61926,0 3.89531,1.46913 3.89531,3.41679 0,2.2163 -1.17531,3.51753 -4.0968,3.51753 h -9.51161 v -6.93432 z m -0.0672,-11.18224 c 3.96247,0 5.01185,2.05679 5.01185,4.13038 0,1.92247 -1.08296,3.9037 -4.70963,3.9037 h -9.94816 v -8.03408 z" /><path
         id="path1465"
         style="opacity:1;fill:#eeeeee;fill-opacity:1;fill-rule:nonzero;stroke:none;stroke-width:1;stop-opacity:1"
         d="m 165.12634,-435.5172 c 0.43654,4.48297 3.45877,6.22075 8.74766,6.22075 3.5847,0 8.09285,-0.92346 8.09285,-5.09581 v -9.63754 c 0,-1.05778 0.47013,-1.5363 1.51951,-1.5363 0.36099,0 0.83111,0.0672 1.17531,0.14272 v -2.3926 c -0.81432,-0.14271 -1.82173,-0.20987 -2.62766,-0.20987 -1.67901,0 -2.79556,0.47851 -3.02222,2.49333 -1.34321,-1.84691 -4.64248,-2.90469 -7.4968,-2.90469 -5.85137,0 -7.161,3.08099 -7.161,5.39803 0,3.28247 1.91408,4.95309 7.56396,5.57432 l 3.83655,0.41136 c 1.88049,0.20988 3.0558,0.54568 3.0558,2.14914 0,2.45976 -2.35061,2.93827 -5.07901,2.93827 -2.88791,0 -5.33927,-0.78074 -5.44001,-3.55111 z m 13.68396,-2.93827 c -0.51209,-0.58766 -1.41037,-0.82272 -3.29926,-1.05778 l -3.79457,-0.48692 c -2.61926,-0.3358 -3.99605,-1.04938 -3.99605,-2.92988 0,-1.67062 1.64543,-2.83753 4.09679,-2.83753 3.80297,0 6.99309,2.0484 6.99309,5.02865 z" /><path
         id="path1469"
         style="opacity:1;fill:#eeeeee;fill-opacity:1;fill-rule:nonzero;stroke:none;stroke-width:1;stop-opacity:1"
         d="m 202.27788,-445.52916 h -0.0672 c -1.30963,-1.8805 -4.09679,-2.90469 -6.69087,-2.90469 -5.31408,0 -9.57878,3.45037 -9.57878,9.46964 0,6.01087 4.2647,9.46124 9.57878,9.46124 2.62766,0 5.34766,-0.95704 6.69087,-2.90469 h 0.0672 v 9.1926 h 3.35803 v -24.60595 h -3.35803 z m -6.31309,-0.0336 c 4.56692,0 6.51457,3.21531 6.51457,6.59853 0,4.09679 -2.58568,6.59852 -6.51457,6.59852 -3.90371,0 -6.46421,-2.50173 -6.46421,-6.59852 0,-3.38322 1.91408,-6.59853 6.46421,-6.59853" /><path
         id="path1473"
         style="opacity:1;fill:#eeeeee;fill-opacity:1;fill-rule:nonzero;stroke:none;stroke-width:1;stop-opacity:1"
         d="m 236.4878,-436.44066 c 0,3.28247 -2.0484,4.27309 -4.23951,4.27309 -3.0642,0 -5.7842,-1.46914 -5.7842,-4.81877 v -10.82964 h -3.36643 v 11.37532 c 0,3.28247 -2.04839,4.27309 -4.23111,4.27309 -3.05581,0 -5.77581,-1.81333 -5.77581,-5.33087 v -10.31754 h -3.36642 v 17.90668 h 3.36642 v -2.70321 h 0.0588 c 1.57828,2.49334 4.37384,3.31605 6.89236,3.31605 2.29185,0 4.57531,-0.95703 5.98568,-3.31605 1.62025,2.0484 3.76099,3.31605 7.12742,3.31605 1.77975,0 6.69087,-0.85629 6.69087,-6.32148 v -12.19804 h -3.35803 z" /><path
         d="m 243.92499,-426.97186 h 3.35803 v 3.7442 h -3.35803 z m 0,-20.85335 h 3.35803 v 17.90668 h -3.35803 z"
         style="fill:#eeeeee;fill-opacity:1;fill-rule:nonzero;stroke:none;stroke-width:1"
         id="path1475" /><path
         id="path1487"
         style="opacity:1;fill:#eeeeee;fill-opacity:1;fill-rule:nonzero;stroke:none;stroke-width:1;stop-opacity:1"
         d="m 251.37142,-429.91265 h 3.36642 v -2.69482 h 0.0672 c 1.57828,2.49334 4.37384,3.31606 6.89236,3.31606 4.23111,0 7.39605,-1.84692 7.39605,-6.32989 v -12.19804 h -3.35802 v 11.51804 c 0,2.63605 -1.62025,4.13038 -5.21334,4.13038 -3.05581,0 -5.78421,-1.81334 -5.78421,-5.32248 v -10.32594 h -3.36642 z" /><path
         id="path1491"
         style="opacity:1;fill:#eeeeee;fill-opacity:1;fill-rule:nonzero;stroke:none;stroke-width:1;stop-opacity:1"
         d="m 274.65095,-424.41304 h 3.36642 v -5.49877 h 5.03705 v -2.66124 h -5.03705 v -11.03952 c 0,-1.43555 1.01581,-1.95605 2.72001,-1.95605 0.78074,0 1.54469,0.10074 2.31704,0.24346 v -2.87111 c -1.14173,-0.20149 -2.37581,-0.23507 -3.761,-0.23507 -3.29926,0 -4.64247,1.63704 -4.64247,4.23112 v 11.62717 h -3.62667 v 2.66124 h 3.62667 z" /><path
         id="path1495"
         style="opacity:1;fill:#eeeeee;fill-opacity:1;fill-rule:nonzero;stroke:none;stroke-width:1;stop-opacity:1"
         d="m 295.04761,-429.29477 c 6.85877,0 10.2252,-4.40741 10.2252,-9.57038 0,-5.16297 -3.36643,-9.57038 -10.2252,-9.57038 -6.85877,0 -10.2168,4.40741 -10.2168,9.57038 0,5.16297 3.35803,9.57038 10.2168,9.57038 m 0,-2.87111 c -4.86914,0 -6.6489,-3.45038 -6.6489,-6.69927 0,-3.24889 1.77976,-6.69927 6.6489,-6.69927 4.87754,0 6.66569,3.45038 6.66569,6.69927 0,3.24889 -1.78815,6.69927 -6.66569,6.69927" /><path
         id="path1499"
         style="opacity:1;fill:#eeeeee;fill-opacity:1;fill-rule:nonzero;stroke:none;stroke-width:1;stop-opacity:1"
         d="m 308.5771,-429.91265 h 3.35803 v -2.69482 h 0.0755 c 1.57828,2.49334 4.36544,3.31606 6.89236,3.31606 4.23111,0 7.39605,-1.84692 7.39605,-6.32989 v -12.19804 h -3.36642 v 11.51804 c 0,2.63605 -1.61185,4.13038 -5.21334,4.13038 -3.0558,0 -5.7842,-1.81334 -5.7842,-5.32248 v -10.32594 h -3.35803 z" /><path
         id="path1503"
         style="opacity:1;fill:#eeeeee;fill-opacity:1;fill-rule:nonzero;stroke:none;stroke-width:1;stop-opacity:1"
         d="m 19.96634,-386.1693 h 18.586686 v -3.13976 H 23.534245 v -7.21136 H 37.84784 v -3.14815 H 23.534245 v -10.9052 H 19.96634 Z" /><path
         id="path1515"
         style="opacity:1;fill:#eeeeee;fill-opacity:1;fill-rule:nonzero;stroke:none;stroke-width:1;stop-opacity:1"
         d="m 43.982115,-402.63875 c 0.268642,-3.69383 3.492349,-5.67507 6.489389,-5.67507 1.922472,0 4.533338,0.64642 5.675068,3.18173 h 3.567905 c -1.679014,-4.30667 -5.616302,-6.05284 -9.075071,-6.05284 -6.858773,0 -10.216801,4.41581 -10.216801,9.57038 0,5.16297 3.358028,9.57038 10.216801,9.57038 4.634079,0 9.545195,-2.73679 9.545195,-10.14964 v -0.44494 z m 12.642976,2.66124 c -0.512099,3.24889 -2.988645,5.06222 -6.153587,5.06222 -3.089385,0 -5.884944,-1.84691 -6.388648,-5.06222 z m -5.38124,14.38915 h 4.197535 l -4.399017,-4.78519 h -2.686422 z" /><path
         id="path1519"
         style="opacity:1;fill:#eeeeee;fill-opacity:1;fill-rule:nonzero;stroke:none;stroke-width:1;stop-opacity:1"
         d="m 79.162497,-408.2752 h -0.06716 c -1.318026,-1.8805 -4.096794,-2.91309 -6.690871,-2.91309 -5.314079,0 -9.58717,3.45877 -9.58717,9.46964 0,6.01927 4.273091,9.46964 9.58717,9.46964 2.619262,0 5.339265,-0.95704 6.690871,-2.90469 h 0.06716 v 9.1926 h 3.358028 v -24.60595 h -3.358028 z m -6.321488,-0.0336 c 4.566918,0 6.52297,3.20692 6.52297,6.59013 0,4.10519 -2.585682,6.60692 -6.52297,6.60692 -3.895313,0 -6.455809,-2.50173 -6.455809,-6.60692 0,-3.38321 1.914076,-6.59013 6.455809,-6.59013" /><path
         id="path1523"
         style="opacity:1;fill:#eeeeee;fill-opacity:1;fill-rule:nonzero;stroke:none;stroke-width:1;stop-opacity:1"
         d="m 89.39357,-402.63875 c 0.268642,-3.69383 3.500744,-5.67507 6.489389,-5.67507 1.922472,0 4.533341,0.64642 5.683461,3.18173 h 3.55951 c -1.67901,-4.30667 -5.607905,-6.05284 -9.075069,-6.05284 -6.858773,0 -10.216801,4.41581 -10.216801,9.57038 0,5.16297 3.358028,9.57038 10.216801,9.57038 4.642469,0 9.545199,-2.73679 9.545199,-10.14964 v -0.44494 z m 12.64298,2.66124 c -0.50371,3.24889 -2.988649,5.06222 -6.153591,5.06222 -3.089385,0 -5.876549,-1.84691 -6.388648,-5.06222 z m -5.381244,14.38915 h 4.205934 l -4.407416,-4.78519 h -2.686422 z" /><path
         id="path1527"
         style="opacity:1;fill:#eeeeee;fill-opacity:1;fill-rule:nonzero;stroke:none;stroke-width:1;stop-opacity:1"
         d="m 109.00949,-392.66372 h 3.36642 v -3.27408 h 0.0672 c 1.57828,2.83754 3.82816,3.89532 6.04445,3.89532 0.83951,0 1.28445,-0.0336 1.92248,-0.20988 v -3.68544 c -0.83951,0.20148 -1.48593,0.33581 -2.3842,0.33581 -3.34124,0 -5.64989,-1.98124 -5.64989,-5.87655 v -9.09187 h -3.36642 z" /><path
         id="path1531"
         style="opacity:1;fill:#eeeeee;fill-opacity:1;fill-rule:nonzero;stroke:none;stroke-width:1;stop-opacity:1"
         d="m 122.43741,-398.26407 c 0.43654,4.47457 3.45877,6.22075 8.73927,6.22075 3.59309,0 8.10124,-0.92346 8.10124,-5.09581 v -9.63754 c 0,-1.05778 0.47013,-1.5363 1.51111,-1.5363 0.37778,0 0.83951,0.0672 1.17531,0.13432 v -2.39259 c -0.79753,-0.13432 -1.82173,-0.20148 -2.61926,-0.20148 -1.68741,0 -2.79556,0.47851 -3.03062,2.49333 -1.34321,-1.84691 -4.63408,-2.90469 -7.4968,-2.90469 -5.84297,0 -7.1526,3.07259 -7.1526,5.39803 0,3.28247 1.91408,4.95309 7.56396,5.56593 l 3.82815,0.41975 c 1.8805,0.20148 3.05581,0.54568 3.05581,2.14914 0,2.45976 -2.34222,2.93827 -5.07062,2.93827 -2.8963,0 -5.34766,-0.78913 -5.4484,-3.55111 z m 13.67557,-2.93827 c -0.49531,-0.57926 -1.41037,-0.82272 -3.29087,-1.05778 l -3.80296,-0.47852 c -2.61927,-0.3442 -3.99606,-1.06618 -3.99606,-2.93828 0,-1.67901 1.65383,-2.84593 4.0968,-2.84593 3.80296,0 6.99309,2.0568 6.99309,5.02865 z" /><path
         id="path1535"
         style="opacity:1;fill:#eeeeee;fill-opacity:1;fill-rule:nonzero;stroke:none;stroke-width:1;stop-opacity:1"
         d="m 145.71526,-387.15992 h 3.35803 v -5.50717 h 5.04544 v -2.66123 h -5.04544 v -11.03952 c 0,-1.43556 1.00741,-1.93926 2.7284,-1.93926 0.77234,0 1.54469,0.10074 2.31704,0.23506 v -2.87111 c -1.14173,-0.20149 -2.3842,-0.24346 -3.761,-0.24346 -3.29926,0 -4.64247,1.64543 -4.64247,4.23951 v 11.61878 h -3.63507 v 2.66123 h 3.63507 z" /><path
         d="m 156.66663,-389.72293 h 3.35803 v 3.7526 h -3.35803 z m 0,-20.85336 h 3.35803 v 17.90669 h -3.35803 z"
         style="fill:#eeeeee;fill-opacity:1;fill-rule:nonzero;stroke:none;stroke-width:1"
         id="path1537" /><path
         id="path1549"
         style="opacity:1;fill:#eeeeee;fill-opacity:1;fill-rule:nonzero;stroke:none;stroke-width:1;stop-opacity:1"
         d="m 173.56758,-392.04669 c 6.85877,0 10.2168,-4.40741 10.2168,-9.57038 0,-5.15457 -3.35803,-9.57038 -10.2168,-9.57038 -6.85877,0 -10.2252,4.41581 -10.2252,9.57038 0,5.16297 3.36643,9.57038 10.2252,9.57038 m 0,-2.87111 c -4.87754,0 -6.65729,-3.45038 -6.65729,-6.69927 0,-3.2405 1.77975,-6.69087 6.65729,-6.69087 4.87754,0 6.65729,3.45037 6.65729,6.69087 0,3.24889 -1.77975,6.69927 -6.65729,6.69927" /><path
         id="path1553"
         style="opacity:1;fill:#eeeeee;fill-opacity:1;fill-rule:nonzero;stroke:none;stroke-width:1;stop-opacity:1"
         d="m 187.0996,-392.66372 h 3.35803 v -2.70321 h 0.0588 c 1.58667,2.50173 4.38223,3.32445 6.90075,3.32445 4.23951,0 7.39606,-1.84692 7.39606,-6.32989 v -12.19804 h -3.36642 v 11.52644 c 0,2.62765 -1.61186,4.13037 -5.21334,4.13037 -3.05581,0 -5.77581,-1.81333 -5.77581,-5.33926 v -10.31755 h -3.35803 z" /><path
         id="path1557"
         style="opacity:1;fill:#eeeeee;fill-opacity:1;fill-rule:nonzero;stroke:none;stroke-width:1;stop-opacity:1"
         d="m 220.86625,-386.1693 h 18.58669 v -3.13976 h -15.01879 v -7.21136 h 14.322 v -3.14815 h -14.322 v -10.9052 h -3.5679 z" /><path
         id="path1569"
         style="opacity:1;fill:#eeeeee;fill-opacity:1;fill-rule:nonzero;stroke:none;stroke-width:1;stop-opacity:1"
         d="m 242.09402,-392.66372 h 3.35803 v -3.27408 h 0.0672 c 1.58667,2.83754 3.83655,3.89532 6.05284,3.89532 0.83951,0 1.28445,-0.0336 1.92248,-0.20988 v -3.68544 c -0.83951,0.20148 -1.48593,0.33581 -2.3926,0.33581 -3.32445,0 -5.64988,-1.98124 -5.64988,-5.87655 v -9.09187 h -3.35803 z" /><path
         id="path1573"
         style="opacity:1;fill:#eeeeee;fill-opacity:1;fill-rule:nonzero;stroke:none;stroke-width:1;stop-opacity:1"
         d="m 255.5211,-398.26407 c 0.43654,4.47457 3.46716,6.22075 8.73927,6.22075 3.59309,0 8.10124,-0.92346 8.10124,-5.09581 v -9.63754 c 0,-1.05778 0.47013,-1.5363 1.51111,-1.5363 0.37778,0 0.84791,0.0672 1.17531,0.13432 v -2.39259 c -0.79753,-0.13432 -1.81333,-0.20148 -2.61926,-0.20148 -1.67901,0 -2.78716,0.47851 -3.02222,2.49333 -1.34321,-1.84691 -4.64248,-2.90469 -7.4968,-2.90469 -5.85137,0 -7.161,3.07259 -7.161,5.39803 0,3.28247 1.91408,4.95309 7.56396,5.56593 l 3.82815,0.41975 c 1.88889,0.20148 3.05581,0.54568 3.05581,2.14914 0,2.45976 -2.34222,2.93827 -5.07062,2.93827 -2.88791,0 -5.34766,-0.78913 -5.4484,-3.55111 z m 13.67557,-2.93827 c -0.49531,-0.57926 -1.40198,-0.82272 -3.28247,-1.05778 l -3.80297,-0.47852 c -2.61926,-0.3442 -4.00445,-1.06618 -4.00445,-2.93828 0,-1.67901 1.65383,-2.84593 4.10519,-2.84593 3.79457,0 6.9847,2.0568 6.9847,5.02865 z" /><path
         id="path1577"
         style="opacity:1;fill:#eeeeee;fill-opacity:1;fill-rule:nonzero;stroke:none;stroke-width:1;stop-opacity:1"
         d="m 277.3231,-392.66372 h 3.35803 v -2.70321 h 0.0672 c 1.57827,2.50173 4.37383,3.32445 6.89235,3.32445 4.23951,0 7.39606,-1.84692 7.39606,-6.32989 v -12.19804 h -3.35803 v 11.52644 c 0,2.62765 -1.62025,4.13037 -5.21334,4.13037 -3.0558,0 -5.7842,-1.81333 -5.7842,-5.33926 v -10.31755 h -3.35803 z" /><path
         id="path1581"
         style="opacity:1;fill:#eeeeee;fill-opacity:1;fill-rule:nonzero;stroke:none;stroke-width:1;stop-opacity:1"
         d="m 316.89494,-404.00546 c -1.30963,-4.96149 -4.13877,-6.86717 -8.1684,-7.11062 l -0.80593,-1.39359 c 0.36099,0.0252 0.69679,0.13432 1.14173,0.13432 1.57827,0 2.98864,-0.68839 2.98864,-2.22469 0,-2.11556 -2.11555,-2.90469 -4.03802,-2.90469 -1.10815,0 -2.35062,0.23506 -3.55951,0.47852 l 0.43654,1.61185 c 0.57926,-0.20988 1.68741,-0.45333 2.51852,-0.45333 0.94864,0 1.82173,0.37777 1.82173,1.05777 0,0.44494 -0.40296,0.99902 -1.41877,0.99902 -0.49531,0 -1.03259,-0.10914 -1.54469,-0.24346 l -0.60444,0.64642 1.34321,2.25828 c -6.44742,0.27703 -8.87359,4.9279 -8.87359,9.42766 0,5.30568 3.19852,9.67952 9.55359,9.67952 4.70124,0 8.42865,-2.15754 9.14223,-6.59853 h -3.56791 c -0.40296,2.32543 -2.21629,3.72741 -5.33926,3.72741 -4.30667,0 -6.22075,-2.87111 -6.22075,-6.70766 0,-3.81976 1.91408,-6.69087 6.22075,-6.69087 3.02223,0 4.66766,1.33482 5.40643,4.30667 z" /><path
         id="path1585"
         style="opacity:1;fill:#eeeeee;fill-opacity:1;fill-rule:nonzero;stroke:none;stroke-width:1;stop-opacity:1"
         d="m 320.03722,-398.26407 c 0.43654,4.47457 3.45877,6.22075 8.73927,6.22075 3.59309,0 8.10124,-0.92346 8.10124,-5.09581 v -9.63754 c 0,-1.05778 0.47013,-1.5363 1.50272,-1.5363 0.37778,0 0.8479,0.0672 1.1837,0.13432 v -2.39259 c -0.80592,-0.13432 -1.81333,-0.20148 -2.61926,-0.20148 -1.68741,0 -2.78716,0.47851 -3.02222,2.49333 -1.35161,-1.84691 -4.64248,-2.90469 -7.4968,-2.90469 -5.85976,0 -7.161,3.07259 -7.161,5.39803 0,3.28247 1.91408,4.95309 7.56396,5.56593 l 3.82815,0.41975 c 1.88889,0.20148 3.0642,0.54568 3.0642,2.14914 0,2.45976 -2.35901,2.93827 -5.07901,2.93827 -2.88791,0 -5.34766,-0.78913 -5.4484,-3.55111 z m 13.68396,-2.93827 c -0.5037,-0.57926 -1.41037,-0.82272 -3.29926,-1.05778 l -3.79457,-0.47852 c -2.62766,-0.3442 -4.00445,-1.06618 -4.00445,-2.93828 0,-1.67901 1.64544,-2.84593 4.10519,-2.84593 3.80297,0 6.99309,2.0568 6.99309,5.02865 z" /><path
         d="m 341.83669,-389.72293 h 3.35803 v 3.7526 h -3.35803 z m 0,-20.85336 h 3.35803 v 17.90669 h -3.35803 z"
         style="fill:#eeeeee;fill-opacity:1;fill-rule:nonzero;stroke:none;stroke-width:1"
         id="path1587" /><path
         id="path1599"
         style="opacity:1;fill:#eeeeee;fill-opacity:1;fill-rule:nonzero;stroke:none;stroke-width:1;stop-opacity:1"
         d="m 351.64046,-404.9306 c 0,-1.60346 1.28445,-3.59309 5.54914,-3.59309 4.33186,0 5.38124,1.54469 5.38124,2.80395 0,1.27605 -0.63802,2.02322 -3.32445,2.40099 l -5.55753,0.74716 c -2.51013,0.3442 -4.7684,1.98124 -4.7684,4.75161 0,3.62668 3.08938,5.77581 8.03408,5.77581 5.7842,0 8.30272,-2.53531 8.60495,-6.01926 h -3.35803 c -0.10914,1.81333 -1.78815,3.34963 -5.2805,3.34963 -2.14914,0 -4.63408,-0.62123 -4.63408,-2.7284 0,-1.20049 0.52889,-1.88049 2.92148,-2.22469 l 4.7684,-0.64642 c 4.441,-0.61284 6.15359,-2.22469 6.15359,-4.75161 0,-4.17235 -3.46716,-6.12001 -8.84001,-6.12001 -4.02963,0 -8.63853,1.05778 -9.00791,6.25433 z" /><path
         id="path1603"
         style="opacity:1;fill:#eeeeee;fill-opacity:1;fill-rule:nonzero;stroke:none;stroke-width:1;stop-opacity:1"
         d="m 372.00018,-402.63875 c 0.26864,-3.69383 3.49235,-5.67507 6.48099,-5.67507 1.92248,0 4.54174,0.64642 5.68347,3.18173 h 3.55951 c -1.67902,-4.30667 -5.60791,-6.05284 -9.06668,-6.05284 -6.85877,0 -10.22519,4.41581 -10.22519,9.57038 0,5.16297 3.36642,9.57038 10.22519,9.57038 4.63408,0 9.5368,-2.73679 9.5368,-10.14964 v -0.44494 z m 12.63458,2.66124 c -0.5037,3.24889 -2.98864,5.06222 -6.15359,5.06222 -3.08938,0 -5.87654,-1.84691 -6.38025,-5.06222 z" /></g><g
       id="g1960"><path
         id="path1607"
         style="opacity:1;fill:#e6001c;fill-opacity:0.1;fill-rule:nonzero;stroke:none;stroke-width:1;stop-opacity:0.5"
         d="m 221.45642,-224.19061 c 0,0 -11.00594,177.841171 -5.44001,249.619023 3.55112,45.669183 10.99755,51.134374 10.99755,51.134374 0,0 43.20942,0.184692 47.07116,-44.561034 4.51654,-87.938362 -52.6287,-256.192363 -52.6287,-256.192363" /><path
         id="path1611"
         style="opacity:1;fill:#eeeeee;fill-opacity:1;fill-rule:nonzero;stroke:none;stroke-width:1;stop-opacity:1"
         d="m 146.18454,-222.94646 c 0,0 -26.36892,141.020393 -39.98572,215.0817036 C 97.190909,41.086899 84.665464,51.689873 84.665464,51.689873 c 0,0 -20.752614,-10.921987 -32.589663,-54.5595625 C 35.512327,-63.952222 87.763245,-155.54244 146.18454,-222.94646" /><path
         id="path1615"
         style="opacity:1;fill:#eeeeee;fill-opacity:1;fill-rule:nonzero;stroke:none;stroke-width:1;stop-opacity:1"
         d="m 257.01038,-222.94646 c 0,0 26.36892,141.020393 39.97733,215.0817036 9.0247,48.9516554 21.54175,59.5546294 21.54175,59.5546294 0,0 20.75261,-10.921987 32.58966,-54.5595625 C 367.68259,-63.952222 315.43167,-155.54244 257.01038,-222.94646" /><path
         id="path1619"
         style="opacity:1;fill:#eeeeee;fill-opacity:1;fill-rule:nonzero;stroke:none;stroke-width:1;stop-opacity:1"
         d="m 181.74606,-224.19061 c 0,0 11.00594,177.841171 5.44001,249.619023 -3.55112,45.669183 -11.00594,51.134374 -11.00594,51.134374 0,0 -43.20103,0.184692 -47.06277,-44.561034 -4.51654,-87.938362 52.6287,-256.192363 52.6287,-256.192363" /></g></g></svg>
